<svg width="225" height="754" viewBox="0 0 225 754" fill="none" xmlns="http://www.w3.org/2000/svg">
<g opacity="0.2">
<g opacity="0.3">
<path d="M61.1662 175.262C58.1861 174.289 51.722 173.768 51.1486 178.034C50.6707 181.561 55.1539 183.62 58.0471 183.742C60.3061 183.838 63.8857 182.864 64.0942 180.145C64.1984 178.651 62.5911 176.392 61.1662 175.262Z" fill="#02546A"/>
<path d="M79.752 177.287C71.8804 174.602 72.28 184.924 78.4227 183.586C80.3949 183.16 82.037 182.308 81.8198 180.154C81.6808 178.729 80.6642 177.295 79.2741 177.052" fill="#02546A"/>
<path d="M72.784 193.977C63.279 192.3 65.3642 205.706 72.5668 202.387C76.6069 200.519 75.321 196.609 72.784 193.977Z" fill="#02546A"/>
<path d="M89.3871 196.887C87.1889 198.547 85.4426 200.745 87.2324 203.438C89.1438 203.186 91.8893 202.179 92.289 199.963C92.5409 198.564 91.3419 195.966 89.7694 196.601" fill="#02546A"/>
<path d="M76.1035 162.925C73.1407 160.579 66.6158 162.933 71.3336 166.122C74.331 168.155 78.9619 166.478 76.1035 162.925Z" fill="#02546A"/>
<path d="M55.1979 195.254C53.5819 193.151 51.5228 192.969 49.1509 194.324C47.2916 195.384 46.8398 196.331 48.2299 198.034C50.3325 200.597 57.9434 198.069 55.1979 195.254Z" fill="#02546A"/>
<path d="M99.1947 185.566C97.9783 185.48 94.8158 184.924 94.6159 186.757C94.4682 188.095 95.9192 188.468 96.8488 188.668C97.8306 188.877 99.9332 189.129 100.533 187.964C100.932 187.191 100.133 185.653 99.1599 185.766" fill="#02546A"/>
<path d="M97.5791 163.229C95.6069 162.838 91.4625 163.62 91.5928 166.331C91.6971 168.477 93.8171 168.511 95.3723 167.973C97.4662 167.243 98.9866 165.149 97.5791 163.229Z" fill="#02546A"/>
<path d="M110.96 172.829C109.431 172.777 106.277 173.255 105.851 175.088C105.53 176.479 106.729 177.886 108.145 177.956C110.23 178.051 112.689 174.897 110.96 172.829Z" fill="#02546A"/>
</g>
<g opacity="0.3">
<path d="M61.1662 725.572C58.1861 724.599 51.722 724.078 51.1486 728.344C50.6707 731.871 55.1539 733.93 58.0471 734.052C60.3061 734.147 63.8857 733.174 64.0942 730.455C64.1984 728.96 62.5911 726.71 61.1662 725.572Z" fill="#02546A"/>
<path d="M79.752 727.596C71.8804 724.911 72.28 735.233 78.4227 733.895C80.3949 733.469 82.037 732.618 81.8198 730.463C81.6808 729.038 80.6642 727.605 79.2741 727.362" fill="#02546A"/>
<path d="M72.784 744.286C63.279 742.61 65.3642 756.016 72.5668 752.697C76.6069 750.837 75.321 746.919 72.784 744.286Z" fill="#02546A"/>
<path d="M89.3871 747.197C87.1889 748.856 85.4426 751.055 87.2324 753.748C89.1438 753.496 91.8893 752.488 92.289 750.273C92.5409 748.874 91.3419 746.276 89.7694 746.91" fill="#02546A"/>
<path d="M76.1035 713.243C73.1407 710.897 66.6158 713.252 71.3336 716.44C74.331 718.465 78.9619 716.788 76.1035 713.243Z" fill="#02546A"/>
<path d="M55.1979 745.564C53.5819 743.461 51.5228 743.279 49.1509 744.634C47.2916 745.694 46.8398 746.641 48.2299 748.344C50.3325 750.907 57.9434 748.379 55.1979 745.564Z" fill="#02546A"/>
<path d="M99.1947 735.885C97.9783 735.798 94.8158 735.242 94.6159 737.075C94.4682 738.413 95.9192 738.787 96.8488 738.987C97.8306 739.195 99.9332 739.447 100.533 738.283C100.932 737.51 100.133 735.972 99.1599 736.085" fill="#02546A"/>
<path d="M97.5791 713.547C95.6069 713.156 91.4625 713.938 91.5928 716.649C91.6971 718.795 93.8171 718.83 95.3723 718.291C97.4662 717.552 98.9866 715.459 97.5791 713.547Z" fill="#02546A"/>
<path d="M110.96 723.139C109.431 723.087 106.277 723.565 105.851 725.398C105.53 726.788 106.729 728.196 108.145 728.265C110.23 728.369 112.689 725.216 110.96 723.139Z" fill="#02546A"/>
</g>
<g opacity="0.3">
<path d="M219.391 3.26904C221.852 9.49376 224.328 15.8006 221.745 22.422C219.391 28.4415 216.242 32.7783 216.044 39.6049C215.86 45.9254 216.242 51.726 217.587 57.8823C218.657 62.7663 220.889 67.4315 221.241 72.466C221.684 78.6633 220.889 85.0932 217.725 90.6749C214.163 96.9407 212.283 102.399 213.185 109.65C214.148 117.462 218.535 125.054 221.394 132.401C223.014 136.574 223.793 140.418 223.35 144.905C222.723 151.144 219.131 156.794 218.184 162.936" stroke="#3D3D3D" stroke-width="3" stroke-miterlimit="10"/>
<path d="M207.223 2.44873C208.874 9.4806 210.999 18.0721 207.957 25.1997C206.642 28.2779 204.701 30.7541 204.09 34.0922C202.79 41.0967 203.769 47.0614 205.42 53.9018C208.064 64.7916 210.326 74.3955 207.055 85.6274C205.695 90.3062 203.555 94.5608 201.43 98.8976C198.786 104.288 198.831 110.854 199.351 116.655C200.085 124.809 203.478 131.471 206.826 138.914C209.073 143.934 210.601 149.598 209.348 155.016" stroke="#3D3D3D" stroke-width="3" stroke-miterlimit="10"/>
<path d="M194.429 1.62769C195.866 6.62114 197.517 11.04 197.211 16.3618C197.013 19.6452 195.178 23.1201 193.803 26.1298C191.938 30.2067 189.431 33.5721 189.018 38.1141C188.392 45.1459 189.523 51.8769 191.724 58.5667C195.331 69.4976 194.582 79.9907 189.569 90.4428C183.791 102.495 185.885 113.399 189.981 125.657C194.414 138.913 200.849 153.675 193.222 167" stroke="#3D3D3D" stroke-width="3" stroke-miterlimit="10"/>
<path d="M180.733 0C182.002 4.59671 184.463 8.42727 183.607 13.3934C182.735 18.4689 179.357 22.6689 177.37 27.3614C174.665 33.7639 173.946 40.0023 174.023 46.829C174.099 53.4094 176.377 59.0458 177.493 65.38C180.015 79.7447 172.464 94.5882 172.509 108.98C172.525 113.81 172.341 118.571 173.09 123.359C173.885 128.407 175.796 133.086 176.958 138.052C178.119 143.073 179.128 147.792 179.205 152.909C179.235 155.112 180.106 158.245 179.205 160.201" stroke="#3D3D3D" stroke-width="3" stroke-miterlimit="10"/>
</g>
<g opacity="0.3">
<path d="M150.625 539.388C147.836 545.473 144.998 551.626 138.431 554.345C132.457 556.812 127.148 557.542 122.083 562.124C117.395 566.366 113.473 570.657 109.961 575.889C107.176 580.042 105.354 584.882 101.964 588.62C97.7982 593.23 92.6074 597.107 86.3888 598.687C79.4015 600.453 74.1605 602.875 69.5517 608.545C64.5804 614.647 62.1372 623.069 58.8136 630.217C56.9237 634.274 54.6888 637.498 51.1434 640.284C46.2072 644.15 39.6429 645.468 34.5537 649.036" stroke="#3D3D3D" stroke-width="3" stroke-miterlimit="10"/>
<path d="M142.794 530.039C138.861 536.098 134.131 543.578 126.882 546.316C123.75 547.498 120.619 547.811 117.787 549.68C111.832 553.591 108.205 558.426 104.411 564.352C98.3815 573.798 93.0161 582.079 82.6456 587.493C78.3272 589.749 73.7752 591.15 69.1746 592.618C63.4539 594.441 58.7464 599.019 54.9197 603.409C49.5429 609.583 47.0833 616.644 44.0291 624.211C41.9608 629.308 38.9312 634.332 34.1536 637.177" stroke="#3D3D3D" stroke-width="3" stroke-miterlimit="10"/>
<path d="M134.532 520.237C131.923 524.731 129.876 528.981 125.824 532.444C123.317 534.573 119.539 535.654 116.415 536.745C112.182 538.221 108.017 538.741 104.454 541.587C98.9449 546.002 94.87 551.478 91.5654 557.697C86.1734 567.866 78.0818 574.589 67.068 578.205C54.3699 582.378 47.9501 591.437 41.9389 602.878C35.4397 615.253 29.2405 630.115 14.3439 633.834" stroke="#3D3D3D" stroke-width="3" stroke-miterlimit="10"/>
<path d="M126.226 509.225C123.787 513.323 122.726 517.75 118.549 520.57C114.283 523.455 108.913 523.924 104.151 525.738C97.6576 528.217 92.6579 532.016 87.7839 536.797C83.0876 541.407 80.5961 546.952 76.797 552.142C68.1755 563.905 52.2358 568.73 41.8805 578.725C38.4057 582.079 34.8427 585.242 31.9054 589.096C28.8122 593.164 26.758 597.782 23.978 602.058C21.1585 606.372 18.4504 610.367 14.8106 613.963C13.2421 615.51 11.584 618.308 9.54783 619.011" stroke="#3D3D3D" stroke-width="3" stroke-miterlimit="10"/>
</g>
</g>
</svg>
