<svg width="1752" height="304" viewBox="0 0 1752 304" fill="none" xmlns="http://www.w3.org/2000/svg">
<path d="M29 259.996H0V289.996H29V259.996Z" fill="#D2DEEC"/>
<path d="M46 303.996H13V270.996H46V303.996ZM16.47 300.526H42.53V274.466H16.47V300.526Z" fill="#D2DEEC"/>
<g opacity="0.2">
<path d="M1718.5 227.996C1728.16 227.996 1736 220.161 1736 210.496C1736 200.831 1728.16 192.996 1718.5 192.996C1708.84 192.996 1701 200.831 1701 210.496C1701 220.161 1708.84 227.996 1718.5 227.996Z" fill="#FF8A00"/>
<path d="M1011 188.996C1015.42 188.996 1019 185.414 1019 180.996C1019 176.578 1015.42 172.996 1011 172.996C1006.58 172.996 1003 176.578 1003 180.996C1003 185.414 1006.58 188.996 1011 188.996Z" fill="#FF8A00"/>
<path d="M1511.5 115.996C1525.03 115.996 1536 105.027 1536 91.4961C1536 77.9651 1525.03 66.9961 1511.5 66.9961C1497.97 66.9961 1487 77.9651 1487 91.4961C1487 105.027 1497.97 115.996 1511.5 115.996Z" fill="#4857EC"/>
<path d="M847 65.9961C859.703 65.9961 870 55.6986 870 42.9961C870 30.2935 859.703 19.9961 847 19.9961C834.297 19.9961 824 30.2935 824 42.9961C824 55.6986 834.297 65.9961 847 65.9961Z" fill="#2FEFB1"/>
<path d="M809 18.9961C813.971 18.9961 818 14.9667 818 9.99609C818 5.02553 813.971 0.996094 809 0.996094C804.029 0.996094 800 5.02553 800 9.99609C800 14.9667 804.029 18.9961 809 18.9961Z" fill="#F7E36D"/>
<path d="M1743 130.996C1747.97 130.996 1752 126.967 1752 121.996C1752 117.026 1747.97 112.996 1743 112.996C1738.03 112.996 1734 117.026 1734 121.996C1734 126.967 1738.03 130.996 1743 130.996Z" fill="#F7E36D"/>
</g>
<path d="M809 147.996H855C863.284 147.996 870 154.712 870 162.996V208.996H824C815.716 208.996 809 202.28 809 193.996V147.996Z" fill="#FF8A00"/>
</svg>
