<svg width="5" height="23" viewBox="0 0 5 23" fill="none" xmlns="http://www.w3.org/2000/svg">
<path fill-rule="evenodd" clip-rule="evenodd" d="M2.5 -1.09278e-07C3.88 -4.89568e-08 5 1.12 5 2.5C5 3.88 3.88 5 2.5 5C1.12 5 -1.696e-07 3.88 -1.09278e-07 2.5C-4.89568e-08 1.12 1.12 -1.696e-07 2.5 -1.09278e-07ZM5 11.25C5 9.87 3.88 8.75 2.5 8.75C1.12 8.75 4.54058e-08 9.87 -1.4916e-08 11.25C-7.52377e-08 12.63 1.12 13.75 2.5 13.75C3.88 13.75 5 12.63 5 11.25ZM5 20C5 18.62 3.88 17.5 2.5 17.5C1.12 17.5 1.39768e-07 18.62 7.94466e-08 20C1.91249e-08 21.38 1.12 22.5 2.5 22.5C3.88 22.5 5 21.38 5 20Z" fill="white"/>
</svg>
