<svg width="24" height="24" viewBox="0 0 24 24" fill="none" xmlns="http://www.w3.org/2000/svg">
<g id="Icon/Outline/file">
<path id="Mask" fill-rule="evenodd" clip-rule="evenodd" d="M17.444 20H6.555C6.249 20 6 19.776 6 19.5V4.5C6 4.224 6.249 4 6.555 4H11V8.15C11 9.722 12.217 11 13.714 11H18V19.5C18 19.776 17.75 20 17.444 20ZM17.649 9H13.714C13.32 9 13 8.619 13 8.15V4H13.112L17.649 9ZM19.74 8.328L14.296 2.328C14.107 2.119 13.838 2 13.555 2H6.555C5.146 2 4 3.122 4 4.5V19.5C4 20.878 5.146 22 6.555 22H17.444C18.853 22 20 20.878 20 19.5V9C20 8.751 19.907 8.512 19.74 8.328Z" fill="white"/>
<mask id="mask0_314_36328" style="mask-type:alpha" maskUnits="userSpaceOnUse" x="4" y="2" width="16" height="20">
<path id="Mask_2" fill-rule="evenodd" clip-rule="evenodd" d="M17.444 20H6.555C6.249 20 6 19.776 6 19.5V4.5C6 4.224 6.249 4 6.555 4H11V8.15C11 9.722 12.217 11 13.714 11H18V19.5C18 19.776 17.75 20 17.444 20ZM17.649 9H13.714C13.32 9 13 8.619 13 8.15V4H13.112L17.649 9ZM19.74 8.328L14.296 2.328C14.107 2.119 13.838 2 13.555 2H6.555C5.146 2 4 3.122 4 4.5V19.5C4 20.878 5.146 22 6.555 22H17.444C18.853 22 20 20.878 20 19.5V9C20 8.751 19.907 8.512 19.74 8.328Z" fill="white"/>
</mask>
<g mask="url(#mask0_314_36328)">
<g id="&#240;&#159;&#142;&#168; Color">
<rect id="Base" width="24" height="24" fill="white"/>
</g>
</g>
</g>
</svg>
