<svg width="21" height="22" viewBox="0 0 21 22" fill="none" xmlns="http://www.w3.org/2000/svg">
<g id="Icon/Fill/navigation-2" filter="url(#filter0_dd_314_36315)">
<path id="Mask" fill-rule="evenodd" clip-rule="evenodd" d="M12.3883 18.3335C12.3708 18.3335 12.3542 18.3327 12.3375 18.3319C11.9608 18.3094 11.6467 18.036 11.5717 17.666L10.29 11.3602C10.2233 11.0319 9.96752 10.776 9.63918 10.7094L3.33335 9.42688C2.96335 9.35271 2.69002 9.03854 2.66752 8.66188C2.64502 8.28438 2.87752 7.93938 3.23585 7.82104L16.5692 3.37688C16.8683 3.27521 17.1983 3.35354 17.4217 3.57771C17.645 3.80104 17.7225 4.13104 17.6234 4.43021L13.1783 17.7635C13.065 18.106 12.745 18.3335 12.3883 18.3335Z" fill="#231F20"/>
<mask id="mask0_314_36315" style="mask-type:alpha" maskUnits="userSpaceOnUse" x="2" y="3" width="16" height="16">
<path id="Mask_2" fill-rule="evenodd" clip-rule="evenodd" d="M12.3883 18.3335C12.3708 18.3335 12.3542 18.3327 12.3375 18.3319C11.9608 18.3094 11.6467 18.036 11.5717 17.666L10.29 11.3602C10.2233 11.0319 9.96752 10.776 9.63918 10.7094L3.33335 9.42688C2.96335 9.35271 2.69002 9.03854 2.66752 8.66188C2.64502 8.28438 2.87752 7.93938 3.23585 7.82104L16.5692 3.37688C16.8683 3.27521 17.1983 3.35354 17.4217 3.57771C17.645 3.80104 17.7225 4.13104 17.6234 4.43021L13.1783 17.7635C13.065 18.106 12.745 18.3335 12.3883 18.3335Z" fill="white"/>
</mask>
<g mask="url(#mask0_314_36315)">
<g id="&#240;&#159;&#142;&#168; Color">
<rect id="Base" x="1" width="20" height="20" fill="white"/>
</g>
</g>
</g>
<defs>
<filter id="filter0_dd_314_36315" x="-1" y="-1" width="24" height="24" filterUnits="userSpaceOnUse" color-interpolation-filters="sRGB">
<feFlood flood-opacity="0" result="BackgroundImageFix"/>
<feColorMatrix in="SourceAlpha" type="matrix" values="0 0 0 0 0 0 0 0 0 0 0 0 0 0 0 0 0 0 127 0" result="hardAlpha"/>
<feOffset dy="1"/>
<feGaussianBlur stdDeviation="0.5"/>
<feColorMatrix type="matrix" values="0 0 0 0 0 0 0 0 0 0 0 0 0 0 0 0 0 0 0.03 0"/>
<feBlend mode="normal" in2="BackgroundImageFix" result="effect1_dropShadow_314_36315"/>
<feColorMatrix in="SourceAlpha" type="matrix" values="0 0 0 0 0 0 0 0 0 0 0 0 0 0 0 0 0 0 127 0" result="hardAlpha"/>
<feOffset dy="1"/>
<feGaussianBlur stdDeviation="1"/>
<feColorMatrix type="matrix" values="0 0 0 0 0 0 0 0 0 0 0 0 0 0 0 0 0 0 0.03 0"/>
<feBlend mode="normal" in2="effect1_dropShadow_314_36315" result="effect2_dropShadow_314_36315"/>
<feBlend mode="normal" in="SourceGraphic" in2="effect2_dropShadow_314_36315" result="shape"/>
</filter>
</defs>
</svg>
